<?xml version="1.0" encoding="UTF-8" standalone="no"?>
<svg
   xmlns:dc="http://purl.org/dc/elements/1.1/"
   xmlns:cc="http://creativecommons.org/ns#"
   xmlns:rdf="http://www.w3.org/1999/02/22-rdf-syntax-ns#"
   xmlns:svg="http://www.w3.org/2000/svg"
   xmlns="http://www.w3.org/2000/svg"
   xmlns:sodipodi="http://sodipodi.sourceforge.net/DTD/sodipodi-0.dtd"
   xmlns:inkscape="http://www.inkscape.org/namespaces/inkscape"
   width="80"
   height="80"
   viewBox="0 0 21.166666 21.166667"
   version="1.1"
   id="svg898"
   inkscape:version="1.0.2 (e86c8708, 2021-01-15)"
   sodipodi:docname="logo22.svg">
  <defs
     id="defs892" />
  <sodipodi:namedview
     id="base"
     pagecolor="#ffffff"
     bordercolor="#666666"
     borderopacity="1.0"
     inkscape:pageopacity="0.0"
     inkscape:pageshadow="2"
     inkscape:zoom="3.4948387"
     inkscape:cx="165.21205"
     inkscape:cy="67.190536"
     inkscape:document-units="px"
     inkscape:current-layer="layer1"
     inkscape:document-rotation="0"
     showgrid="false"
     units="px"
     inkscape:window-width="1440"
     inkscape:window-height="900"
     inkscape:window-x="0"
     inkscape:window-y="0"
     inkscape:window-maximized="0"
     inkscape:pagecheckerboard="true" />
  <metadata
     id="metadata895">
    <rdf:RDF>
      <cc:Work
         rdf:about="">
        <dc:format>image/svg+xml</dc:format>
        <dc:type
           rdf:resource="http://purl.org/dc/dcmitype/StillImage" />
        <dc:title></dc:title>
      </cc:Work>
    </rdf:RDF>
  </metadata>
  <g
     inkscape:label="Layer 1"
     inkscape:groupmode="layer"
     id="layer1">
    <path
       id="rect14-0-5"
       style="stroke-width:0.264583"
       d="m 4.061326,1.6647264 c -1.467996,0 -2.6499686,1.1819731 -2.6499686,2.6499674 V 16.63177 c 0,1.467995 1.1819726,2.649968 2.6499686,2.649968 h 13.2488 c 1.467996,0 2.649969,-1.181973 2.649969,-2.649968 V 4.3146938 c 0,-1.4679943 -1.181973,-2.6499674 -2.649969,-2.6499674 z M 5.898421,3.4770187 H 6.140784 L 5.152732,6.0401697 H 4.914501 Z M 4.586357,3.9302211 V 4.178268 L 3.332171,4.7229377 4.586357,5.2670903 V 5.5151372 L 2.996272,4.8082036 V 4.6371547 Z m 2.023131,0 1.5900848,0.7069336 V 4.8082036 L 6.609488,5.5151372 V 5.2670903 L 7.8631608,4.7229377 6.609488,4.178268 Z m 1.0960578,4.2369505 h 0.697632 V 11.360774 L 9.3860658,10.38409 H 10.322441 L 9.0108938,11.652229 10.418559,13.40406 H 9.5131868 l -0.998386,-1.274341 -0.111623,0.111622 v 1.162719 h -0.697632 z m 4.0555672,2.1332024 c 0.38654,0 0.673859,0.199471 0.861962,0.598413 l -0.57671,0.306958 c -0.09095,-0.186035 -0.203605,-0.279053 -0.337963,-0.279053 -0.06408,0 -0.118856,0.02171 -0.164332,0.06511 -0.04547,0.04134 -0.06821,0.09508 -0.06821,0.161231 0,0.115755 0.134361,0.230477 0.403077,0.344165 0.370004,0.159163 0.619083,0.305925 0.747242,0.440283 0.128156,0.134359 0.192236,0.315226 0.192236,0.542603 0,0.291454 -0.107487,0.535367 -0.322461,0.731738 -0.208773,0.186035 -0.460955,0.279053 -0.756542,0.279053 -0.506431,0 -0.865066,-0.247014 -1.075904,-0.74104 l 0.595312,-0.275952 c 0.08268,0.144694 0.145727,0.236678 0.189135,0.275952 0.08475,0.07855 0.186036,0.117822 0.303858,0.117822 0.235646,0 0.353467,-0.107487 0.353467,-0.322461 0,-0.124023 -0.09095,-0.239778 -0.272851,-0.347266 -0.07028,-0.03514 -0.14056,-0.06925 -0.210841,-0.102319 -0.07028,-0.03307 -0.141592,-0.06718 -0.21394,-0.102319 -0.20257,-0.09922 -0.345199,-0.198437 -0.427881,-0.297657 -0.105418,-0.126089 -0.158128,-0.288353 -0.158128,-0.486791 0,-0.262517 0.08992,-0.479557 0.26975,-0.651124 0.183968,-0.171565 0.40721,-0.257348 0.669727,-0.257348 z"
       inkscape:export-xdpi="96"
       inkscape:export-ydpi="96" />
    <g
       aria-label="ks"
       id="text12-2-01"
       style="font-style:normal;font-weight:normal;font-size:6.35px;line-height:1.25;font-family:sans-serif;fill:#000000;fill-opacity:1;stroke:none;stroke-width:0.264583" />
    <g
       aria-label="&lt;/&gt;"
       id="text124"
       style="font-style:normal;font-weight:normal;font-size:2.82222px;line-height:1.25;font-family:sans-serif;fill:#ffffff;fill-opacity:1;stroke:none;stroke-width:0.264583" />
  </g>
</svg>
