<?xml version="1.0" encoding="UTF-8" standalone="no"?>
<svg
   xmlns:dc="http://purl.org/dc/elements/1.1/"
   xmlns:cc="http://creativecommons.org/ns#"
   xmlns:rdf="http://www.w3.org/1999/02/22-rdf-syntax-ns#"
   xmlns:svg="http://www.w3.org/2000/svg"
   xmlns="http://www.w3.org/2000/svg"
   xmlns:sodipodi="http://sodipodi.sourceforge.net/DTD/sodipodi-0.dtd"
   xmlns:inkscape="http://www.inkscape.org/namespaces/inkscape"
   width="220"
   height="100"
   viewBox="0 0 58.208332 26.458334"
   version="1.1"
   id="svg898"
   inkscape:version="1.0.2 (e86c8708, 2021-01-15)"
   sodipodi:docname="logo2.svg">
  <defs
     id="defs892" />
  <sodipodi:namedview
     id="base"
     pagecolor="#ffffff"
     bordercolor="#666666"
     borderopacity="1.0"
     inkscape:pageopacity="0.0"
     inkscape:pageshadow="2"
     inkscape:zoom="3.4948387"
     inkscape:cx="110.13082"
     inkscape:cy="67.190536"
     inkscape:document-units="px"
     inkscape:current-layer="layer1"
     inkscape:document-rotation="0"
     showgrid="false"
     units="px"
     inkscape:window-width="1252"
     inkscape:window-height="808"
     inkscape:window-x="104"
     inkscape:window-y="23"
     inkscape:window-maximized="0"
     inkscape:pagecheckerboard="true" />
  <metadata
     id="metadata895">
    <rdf:RDF>
      <cc:Work
         rdf:about="">
        <dc:format>image/svg+xml</dc:format>
        <dc:type
           rdf:resource="http://purl.org/dc/dcmitype/StillImage" />
        <dc:title></dc:title>
      </cc:Work>
    </rdf:RDF>
  </metadata>
  <g
     inkscape:label="Layer 1"
     inkscape:groupmode="layer"
     id="layer1">
    <path
       id="rect14-0-5"
       style="stroke-width:0.999999"
       d="M 152.98438 15.734375 C 147.43605 15.734375 142.96875 20.201675 142.96875 25.75 L 142.96875 72.302734 C 142.96875 77.85106 147.43605 82.318359 152.98438 82.318359 L 203.05859 82.318359 C 208.60692 82.318359 213.07422 77.85106 213.07422 72.302734 L 213.07422 25.75 C 213.07422 20.201675 208.60692 15.734375 203.05859 15.734375 L 152.98438 15.734375 z M 159.92773 22.583984 L 160.84375 22.583984 L 157.10938 32.271484 L 156.20898 32.271484 L 159.92773 22.583984 z M 154.96875 24.296875 L 154.96875 25.234375 L 150.22852 27.292969 L 154.96875 29.349609 L 154.96875 30.287109 L 148.95898 27.615234 L 148.95898 26.96875 L 154.96875 24.296875 z M 162.61523 24.296875 L 168.625 26.96875 L 168.625 27.615234 L 162.61523 30.287109 L 162.61523 29.349609 L 167.35352 27.292969 L 162.61523 25.234375 L 162.61523 24.296875 z M 166.75781 40.310547 L 169.39453 40.310547 L 169.39453 52.380859 L 173.10938 48.689453 L 176.64844 48.689453 L 171.69141 53.482422 L 177.01172 60.103516 L 173.58984 60.103516 L 169.81641 55.287109 L 169.39453 55.708984 L 169.39453 60.103516 L 166.75781 60.103516 L 166.75781 40.310547 z M 182.08594 48.373047 C 183.54688 48.373047 184.63281 49.126953 185.34375 50.634766 L 183.16406 51.794922 C 182.82031 51.091796 182.39453 50.740234 181.88672 50.740234 C 181.64453 50.740234 181.4375 50.822271 181.26562 50.986328 C 181.09377 51.142574 181.00781 51.345697 181.00781 51.595703 C 181.00781 52.033204 181.51563 52.466797 182.53125 52.896484 C 183.92969 53.498047 184.87109 54.052735 185.35547 54.560547 C 185.83984 55.068359 186.08203 55.751952 186.08203 56.611328 C 186.08203 57.712889 185.67578 58.634765 184.86328 59.376953 C 184.07422 60.080079 183.12109 60.431641 182.00391 60.431641 C 180.08984 60.431641 178.73437 59.498047 177.9375 57.630859 L 180.1875 56.587891 C 180.5 57.134766 180.73828 57.482422 180.90234 57.630859 C 181.22266 57.927734 181.60547 58.076172 182.05078 58.076172 C 182.94141 58.076172 183.38672 57.669922 183.38672 56.857422 C 183.38672 56.388672 183.04297 55.951173 182.35547 55.544922 C 182.08984 55.412109 181.82422 55.283202 181.55859 55.158203 C 181.29297 55.033202 181.02344 54.904294 180.75 54.771484 C 179.98438 54.396485 179.44531 54.021487 179.13281 53.646484 C 178.73438 53.169924 178.53516 52.556643 178.53516 51.806641 C 178.53516 50.814454 178.875 49.994142 179.55469 49.345703 C 180.25 48.697267 181.09375 48.373047 182.08594 48.373047 z "
       transform="scale(0.26458333)" />
    <g
       aria-label="ks"
       id="text12-2-01"
       style="font-style:normal;font-weight:normal;font-size:6.35px;line-height:1.25;font-family:sans-serif;fill:#000000;fill-opacity:1;stroke:none;stroke-width:0.264583" />
    <g
       aria-label="vitamin"
       id="text18-4-26"
       style="font-style:normal;font-weight:normal;font-size:10.5833px;line-height:1.25;font-family:sans-serif;fill:#000000;fill-opacity:1;stroke:none;stroke-width:0.264583">
      <path
         d="M 3.6423037,11.892848 4.9445457,14.71954 6.24162,11.892848 h 1.3074096 l -2.6148192,5.3795 -2.5941486,-5.3795 z"
         style="font-style:normal;font-variant:normal;font-weight:normal;font-stretch:normal;font-family:Futura;-inkscape-font-specification:Futura;stroke-width:0.264583"
         id="path2137" />
      <path
         d="m 9.4920572,11.892848 v 5.033269 H 8.3293411 V 11.892848 Z M 8.1536418,9.7999596 q 0,-0.30489 0.222208,-0.5270979 0.2222079,-0.222208 0.5322655,-0.222208 0.3152253,0 0.5374332,0.222208 0.222208,0.2170403 0.222208,0.5322655 0,0.3152248 -0.222208,0.5374328 -0.2170403,0.222208 -0.5322655,0.222208 -0.3152253,0 -0.5374332,-0.222208 -0.222208,-0.222208 -0.222208,-0.5426004 z"
         style="font-style:normal;font-variant:normal;font-weight:normal;font-stretch:normal;font-family:Futura;-inkscape-font-specification:Futura;stroke-width:0.264583"
         id="path2139" />
      <path
         d="m 12.174055,12.97805 v 3.948067 H 11.011339 V 12.97805 h -0.496092 v -1.085202 h 0.496092 v -1.844842 h 1.162716 v 1.844842 h 0.904335 v 1.085202 z"
         style="font-style:normal;font-variant:normal;font-weight:normal;font-stretch:normal;font-family:Futura;-inkscape-font-specification:Futura;stroke-width:0.264583"
         id="path2141" />
      <path
         d="m 17.693081,11.892848 h 1.167884 v 5.033269 h -1.167884 v -0.527098 q -0.7183,0.671791 -1.545121,0.671791 -1.04386,0 -1.725987,-0.754473 -0.676959,-0.769976 -0.676959,-1.922357 0,-1.13171 0.676959,-1.886184 0.676959,-0.754473 1.694982,-0.754473 0.878496,0 1.576126,0.723467 z m -2.759513,2.501132 q 0,0.723468 0.387572,1.178219 0.397907,0.459919 1.00252,0.459919 0.645953,0 1.04386,-0.444416 0.397908,-0.459919 0.397908,-1.167884 0,-0.707965 -0.397908,-1.167884 -0.397907,-0.449583 -1.033525,-0.449583 -0.599445,0 -1.00252,0.454751 -0.397907,0.459919 -0.397907,1.136878 z"
         style="font-style:normal;font-variant:normal;font-weight:normal;font-stretch:normal;font-family:Futura;-inkscape-font-specification:Futura;stroke-width:0.264583"
         id="path2143" />
      <path
         d="m 20.338905,11.892848 h 1.162716 v 0.465087 q 0.335896,-0.351399 0.573607,-0.475422 0.253213,-0.12919 0.635618,-0.12919 0.852658,0 1.34875,0.744138 0.547769,-0.744138 1.483109,-0.744138 1.700149,0 1.700149,2.061883 v 3.110911 h -1.167883 v -2.795686 q 0,-0.723468 -0.1757,-1.02319 -0.180866,-0.30489 -0.594277,-0.30489 -0.480589,0 -0.702797,0.361734 -0.21704,0.361734 -0.21704,1.162716 v 2.599316 h -1.167884 v -2.780183 q 0,-1.343583 -0.775144,-1.343583 -0.490924,0 -0.7183,0.366901 -0.222208,0.366902 -0.222208,1.157549 v 2.599316 h -1.162716 z"
         style="font-style:normal;font-variant:normal;font-weight:normal;font-stretch:normal;font-family:Futura;-inkscape-font-specification:Futura;stroke-width:0.264583"
         id="path2145" />
      <path
         d="m 29.873176,11.892848 v 5.033269 H 28.71046 V 11.892848 Z M 28.534761,9.7999596 q 0,-0.30489 0.222208,-0.5270979 0.222208,-0.222208 0.532266,-0.222208 0.315225,0 0.537433,0.222208 0.222208,0.2170403 0.222208,0.5322655 0,0.3152248 -0.222208,0.5374328 -0.217041,0.222208 -0.532266,0.222208 -0.315225,0 -0.537433,-0.222208 -0.222208,-0.222208 -0.222208,-0.5426004 z"
         style="font-style:normal;font-variant:normal;font-weight:normal;font-stretch:normal;font-family:Futura;-inkscape-font-specification:Futura;stroke-width:0.264583"
         id="path2147" />
      <path
         d="m 31.356287,11.892848 h 1.167883 v 0.465087 q 0.60978,-0.604612 1.374589,-0.604612 0.878497,0 1.369421,0.552936 0.423746,0.470254 0.423746,1.534785 v 3.085073 h -1.167884 v -2.811189 q 0,-0.744138 -0.206705,-1.028358 -0.201538,-0.289387 -0.733803,-0.289387 -0.578774,0 -0.821653,0.382405 -0.237711,0.377236 -0.237711,1.317744 v 2.428785 h -1.167883 z"
         style="font-style:normal;font-variant:normal;font-weight:normal;font-stretch:normal;font-family:Futura;-inkscape-font-specification:Futura;stroke-width:0.264583"
         id="path2149" />
    </g>
    <g
       aria-label="&lt;/&gt;"
       id="text124"
       style="font-style:normal;font-weight:normal;font-size:2.82222000000000017px;line-height:1.25;font-family:sans-serif;fill:#ffffff;fill-opacity:1;stroke:none;stroke-width:0.264583" />
  </g>
</svg>
